STARTFONT 2.1
FONT -Monotype-Nimrod-Bold-I-Normal--10-100-75-75-P-67-iso8859-5
SIZE 10 75 75
FONTBOUNDINGBOX 14 13 -1 -2

STARTPROPERTIES 24
FOUNDRY "Monotype"
FAMILY_NAME "Nimrod"
WEIGHT_NAME "Bold"
SLANT "I"
SETWIDTH_NAME "Normal"
ADD_STYLE_NAME ""
PIXEL_SIZE 10
POINT_SIZE 100
RESOLUTION_X 75
RESOLUTION_Y 75
SPACING "P"
AVERAGE_WIDTH 67
CHARSET_REGISTRY "iso8859"
CHARSET_ENCODING "5"
FACE_NAME "Nimrod Bold Inclined ISO Latin Cyrillic"
_DEC_DEVICE_FONTNAMES "PS=nimrod-bin-latcyrillic"
COPYRIGHT "Copyright (c) 1994 Monotype Typography Ltd."
CAP_HEIGHT 9
X_HEIGHT 7
WEIGHT 10
QUAD_WIDTH 8
DEFAULT_CHAR 160
FONT_DESCENT 2
FONT_ASCENT 11
ENDPROPERTIES

CHARS 191

STARTCHAR space
ENCODING 32
SWIDTH 250 0
DWIDTH 3 0
BBX 0 0 0 0
BITMAP
ENDCHAR

STARTCHAR exclam
ENCODING 33
SWIDTH 375 0
DWIDTH 4 0
BBX 3 8 1 0
BITMAP
60
60
60
40
40
00
C0
C0
ENDCHAR

STARTCHAR quotedbl
ENCODING 34
SWIDTH 552 0
DWIDTH 6 0
BBX 4 3 1 5
BITMAP
50
F0
A0
ENDCHAR

STARTCHAR numbersign
ENCODING 35
SWIDTH 667 0
DWIDTH 7 0
BBX 7 8 0 0
BITMAP
24
24
7E
24
48
FC
48
48
ENDCHAR

STARTCHAR dollar
ENCODING 36
SWIDTH 510 0
DWIDTH 5 0
BBX 6 9 0 -1
BITMAP
10
38
64
60
30
18
98
70
20
ENDCHAR

STARTCHAR percent
ENCODING 37
SWIDTH 1000 0
DWIDTH 10 0
BBX 7 8 2 0
BITMAP
64
A8
A8
D0
16
2A
2A
4C
ENDCHAR

STARTCHAR ampersand
ENCODING 38
SWIDTH 927 0
DWIDTH 9 0
BBX 10 8 0 0
BITMAP
0C00
1A00
1A00
1DC0
6C80
CF00
C680
7B00
ENDCHAR

STARTCHAR quoteright
ENCODING 39
SWIDTH 323 0
DWIDTH 3 0
BBX 3 3 0 5
BITMAP
60
60
C0
ENDCHAR

STARTCHAR parenleft
ENCODING 40
SWIDTH 385 0
DWIDTH 4 0
BBX 4 10 1 -2
BITMAP
30
60
60
C0
C0
C0
C0
C0
40
40
ENDCHAR

STARTCHAR parenright
ENCODING 41
SWIDTH 385 0
DWIDTH 4 0
BBX 4 10 0 -2
BITMAP
20
20
30
30
30
30
30
60
60
C0
ENDCHAR

STARTCHAR asterisk
ENCODING 42
SWIDTH 552 0
DWIDTH 6 0
BBX 4 4 1 4
BITMAP
10
A0
70
A0
ENDCHAR

STARTCHAR plus
ENCODING 43
SWIDTH 667 0
DWIDTH 7 0
BBX 5 5 1 1
BITMAP
20
20
F8
20
20
ENDCHAR

STARTCHAR comma
ENCODING 44
SWIDTH 323 0
DWIDTH 3 0
BBX 3 3 0 -1
BITMAP
60
60
C0
ENDCHAR

STARTCHAR minus
ENCODING 45
SWIDTH 667 0
DWIDTH 7 0
BBX 5 1 1 3
BITMAP
F8
ENDCHAR

STARTCHAR period
ENCODING 46
SWIDTH 323 0
DWIDTH 3 0
BBX 2 2 1 0
BITMAP
C0
C0
ENDCHAR

STARTCHAR slash
ENCODING 47
SWIDTH 552 0
DWIDTH 6 0
BBX 6 8 0 0
BITMAP
04
0C
18
10
20
60
C0
80
ENDCHAR

STARTCHAR zero
ENCODING 48
SWIDTH 562 0
DWIDTH 6 0
BBX 5 8 1 0
BITMAP
30
58
D8
D8
D8
D8
D0
60
ENDCHAR

STARTCHAR one
ENCODING 49
SWIDTH 562 0
DWIDTH 6 0
BBX 4 8 1 0
BITMAP
10
70
30
30
60
60
60
F0
ENDCHAR

STARTCHAR two
ENCODING 50
SWIDTH 562 0
DWIDTH 6 0
BBX 6 8 0 0
BITMAP
38
6C
0C
18
10
20
48
F8
ENDCHAR

STARTCHAR three
ENCODING 51
SWIDTH 562 0
DWIDTH 6 0
BBX 6 8 0 0
BITMAP
38
6C
0C
38
18
18
D8
70
ENDCHAR

STARTCHAR four
ENCODING 52
SWIDTH 562 0
DWIDTH 6 0
BBX 6 8 0 0
BITMAP
04
0C
1C
2C
58
FC
18
3C
ENDCHAR

STARTCHAR five
ENCODING 53
SWIDTH 562 0
DWIDTH 6 0
BBX 6 8 0 0
BITMAP
3C
20
70
58
18
18
D8
70
ENDCHAR

STARTCHAR six
ENCODING 54
SWIDTH 562 0
DWIDTH 6 0
BBX 6 8 1 0
BITMAP
18
6C
C0
F0
D8
D8
D0
60
ENDCHAR

STARTCHAR seven
ENCODING 55
SWIDTH 562 0
DWIDTH 6 0
BBX 5 8 1 0
BITMAP
F8
88
18
30
20
60
C0
C0
ENDCHAR

STARTCHAR eight
ENCODING 56
SWIDTH 562 0
DWIDTH 6 0
BBX 6 8 0 0
BITMAP
38
6C
6C
78
D8
D8
D8
70
ENDCHAR

STARTCHAR nine
ENCODING 57
SWIDTH 562 0
DWIDTH 6 0
BBX 6 8 0 0
BITMAP
18
2C
6C
6C
3C
0C
D8
60
ENDCHAR

STARTCHAR colon
ENCODING 58
SWIDTH 323 0
DWIDTH 3 0
BBX 3 6 0 0
BITMAP
60
60
00
00
C0
C0
ENDCHAR

STARTCHAR semicolon
ENCODING 59
SWIDTH 323 0
DWIDTH 3 0
BBX 4 7 -1 -2
BITMAP
30
30
00
00
60
60
C0
ENDCHAR

STARTCHAR less
ENCODING 60
SWIDTH 667 0
DWIDTH 7 0
BBX 5 5 1 1
BITMAP
18
60
80
60
18
ENDCHAR

STARTCHAR equal
ENCODING 61
SWIDTH 667 0
DWIDTH 7 0
BBX 5 3 1 2
BITMAP
F8
00
F8
ENDCHAR

STARTCHAR greater
ENCODING 62
SWIDTH 667 0
DWIDTH 7 0
BBX 5 5 1 1
BITMAP
C0
30
08
30
C0
ENDCHAR

STARTCHAR question
ENCODING 63
SWIDTH 458 0
DWIDTH 5 0
BBX 5 8 0 0
BITMAP
30
58
18
30
60
00
C0
C0
ENDCHAR

STARTCHAR at
ENCODING 64
SWIDTH 833 0
DWIDTH 9 0
BBX 9 10 0 -2
BITMAP
1E00
6100
4A80
9680
B680
B680
B500
9A00
4100
3E00
ENDCHAR

STARTCHAR A
ENCODING 65
SWIDTH 802 0
DWIDTH 8 0
BBX 8 8 0 0
BITMAP
04
0C
0C
16
26
3E
46
EF
ENDCHAR

STARTCHAR B
ENCODING 66
SWIDTH 802 0
DWIDTH 8 0
BBX 8 8 0 0
BITMAP
7E
33
33
3E
66
66
66
FC
ENDCHAR

STARTCHAR C
ENCODING 67
SWIDTH 740 0
DWIDTH 7 0
BBX 8 8 0 0
BITMAP
0E
33
62
60
C0
C2
C4
78
ENDCHAR

STARTCHAR D
ENCODING 68
SWIDTH 854 0
DWIDTH 9 0
BBX 9 8 0 0
BITMAP
7E00
3300
3180
3180
6300
6300
6600
FC00
ENDCHAR

STARTCHAR E
ENCODING 69
SWIDTH 740 0
DWIDTH 8 0
BBX 8 8 0 0
BITMAP
7F
31
35
3C
64
62
62
FE
ENDCHAR

STARTCHAR F
ENCODING 70
SWIDTH 729 0
DWIDTH 7 0
BBX 8 8 0 0
BITMAP
7F
31
35
3C
64
60
60
F0
ENDCHAR

STARTCHAR G
ENCODING 71
SWIDTH 854 0
DWIDTH 9 0
BBX 8 8 1 0
BITMAP
0E
33
62
60
CF
C6
C6
7C
ENDCHAR

STARTCHAR H
ENCODING 72
SWIDTH 865 0
DWIDTH 9 0
BBX 9 8 0 0
BITMAP
7780
3300
3300
3F00
6600
6600
6600
F700
ENDCHAR

STARTCHAR I
ENCODING 73
SWIDTH 479 0
DWIDTH 5 0
BBX 5 8 0 0
BITMAP
78
30
30
30
60
60
60
F0
ENDCHAR

STARTCHAR J
ENCODING 74
SWIDTH 656 0
DWIDTH 7 0
BBX 7 8 0 0
BITMAP
1E
0C
0C
0C
18
D8
98
70
ENDCHAR

STARTCHAR K
ENCODING 75
SWIDTH 823 0
DWIDTH 8 0
BBX 9 8 0 0
BITMAP
7B80
3100
3200
3400
7800
6C00
6600
F700
ENDCHAR

STARTCHAR L
ENCODING 76
SWIDTH 698 0
DWIDTH 7 0
BBX 7 8 0 0
BITMAP
78
30
30
30
60
62
62
FE
ENDCHAR

STARTCHAR M
ENCODING 77
SWIDTH 1031 0
DWIDTH 10 0
BBX 11 8 0 0
BITMAP
71E0
31C0
32C0
5AC0
5D80
4D80
4D80
E9C0
ENDCHAR

STARTCHAR N
ENCODING 78
SWIDTH 833 0
DWIDTH 8 0
BBX 9 8 0 0
BITMAP
7380
3100
3900
3900
4E00
4E00
4600
E400
ENDCHAR

STARTCHAR O
ENCODING 79
SWIDTH 823 0
DWIDTH 8 0
BBX 8 8 0 0
BITMAP
1E
33
63
63
C6
C6
CC
78
ENDCHAR

STARTCHAR P
ENCODING 80
SWIDTH 771 0
DWIDTH 8 0
BBX 8 8 0 0
BITMAP
7E
33
33
33
7E
60
60
F0
ENDCHAR

STARTCHAR Q
ENCODING 81
SWIDTH 823 0
DWIDTH 8 0
BBX 8 9 0 -1
BITMAP
1E
33
63
63
D6
EE
CC
7C
07
ENDCHAR

STARTCHAR R
ENCODING 82
SWIDTH 823 0
DWIDTH 8 0
BBX 8 8 0 0
BITMAP
7E
33
33
33
7E
6C
66
F7
ENDCHAR

STARTCHAR S
ENCODING 83
SWIDTH 667 0
DWIDTH 6 0
BBX 6 8 0 0
BITMAP
3C
64
60
30
18
18
98
F0
ENDCHAR

STARTCHAR T
ENCODING 84
SWIDTH 750 0
DWIDTH 8 0
BBX 8 8 0 0
BITMAP
FF
99
99
18
30
30
30
78
ENDCHAR

STARTCHAR U
ENCODING 85
SWIDTH 792 0
DWIDTH 8 0
BBX 8 8 1 0
BITMAP
F7
62
62
62
C4
C4
C8
70
ENDCHAR

STARTCHAR V
ENCODING 86
SWIDTH 771 0
DWIDTH 8 0
BBX 9 8 0 0
BITMAP
F780
6100
6200
6200
3400
3800
3800
3000
ENDCHAR

STARTCHAR W
ENCODING 87
SWIDTH 1104 0
DWIDTH 11 0
BBX 12 8 0 0
BITMAP
EF70
6620
6640
6C40
3C80
3700
3300
2200
ENDCHAR

STARTCHAR X
ENCODING 88
SWIDTH 823 0
DWIDTH 8 0
BBX 9 8 0 0
BITMAP
7B80
3100
1A00
0C00
1800
2C00
4600
EF00
ENDCHAR

STARTCHAR Y
ENCODING 89
SWIDTH 771 0
DWIDTH 8 0
BBX 8 8 1 0
BITMAP
F7
62
34
38
30
60
60
F0
ENDCHAR

STARTCHAR Z
ENCODING 90
SWIDTH 719 0
DWIDTH 7 0
BBX 7 8 0 0
BITMAP
3E
66
4C
18
30
64
CC
F8
ENDCHAR

STARTCHAR bracketleft
ENCODING 91
SWIDTH 396 0
DWIDTH 4 0
BBX 5 10 0 -2
BITMAP
38
30
30
60
60
60
60
C0
C0
E0
ENDCHAR

STARTCHAR backslash
ENCODING 92
SWIDTH 552 0
DWIDTH 6 0
BBX 6 8 0 0
BITMAP
C0
60
20
30
10
18
08
0C
ENDCHAR

STARTCHAR bracketright
ENCODING 93
SWIDTH 396 0
DWIDTH 4 0
BBX 5 10 0 -2
BITMAP
38
18
18
30
30
30
30
60
60
E0
ENDCHAR

STARTCHAR asciicircum
ENCODING 94
SWIDTH 573 0
DWIDTH 6 0
BBX 5 3 1 5
BITMAP
20
70
88
ENDCHAR

STARTCHAR underscore
ENCODING 95
SWIDTH 500 0
DWIDTH 5 0
BBX 5 1 0 -2
BITMAP
F8
ENDCHAR

STARTCHAR quoteleft
ENCODING 96
SWIDTH 323 0
DWIDTH 3 0
BBX 3 3 0 5
BITMAP
60
C0
C0
ENDCHAR

STARTCHAR a
ENCODING 97
SWIDTH 667 0
DWIDTH 7 0
BBX 8 5 0 0
BITMAP
1E
66
CC
DD
6E
ENDCHAR

STARTCHAR b
ENCODING 98
SWIDTH 635 0
DWIDTH 6 0
BBX 6 8 1 0
BITMAP
E0
60
60
78
CC
CC
D8
B0
ENDCHAR

STARTCHAR c
ENCODING 99
SWIDTH 510 0
DWIDTH 5 0
BBX 5 5 0 0
BITMAP
30
68
C0
D0
60
ENDCHAR

STARTCHAR d
ENCODING 100
SWIDTH 667 0
DWIDTH 7 0
BBX 7 8 0 0
BITMAP
0E
06
06
3C
6C
CC
DA
6C
ENDCHAR

STARTCHAR e
ENCODING 101
SWIDTH 500 0
DWIDTH 5 0
BBX 5 5 0 0
BITMAP
30
58
F0
C0
70
ENDCHAR

STARTCHAR f
ENCODING 102
SWIDTH 406 0
DWIDTH 4 0
BBX 7 10 -1 -2
BITMAP
0C
1A
18
3C
18
18
30
30
30
E0
ENDCHAR

STARTCHAR g
ENCODING 103
SWIDTH 625 0
DWIDTH 6 0
BBX 6 7 0 -2
BITMAP
3C
68
68
30
70
D8
70
ENDCHAR

STARTCHAR h
ENCODING 104
SWIDTH 677 0
DWIDTH 7 0
BBX 8 8 0 0
BITMAP
70
30
30
3C
66
66
6D
EE
ENDCHAR

STARTCHAR i
ENCODING 105
SWIDTH 396 0
DWIDTH 4 0
BBX 3 8 1 0
BITMAP
60
60
00
E0
60
60
C0
E0
ENDCHAR

STARTCHAR j
ENCODING 106
SWIDTH 396 0
DWIDTH 4 0
BBX 5 10 0 -2
BITMAP
18
18
00
70
30
30
60
60
60
C0
ENDCHAR

STARTCHAR k
ENCODING 107
SWIDTH 646 0
DWIDTH 6 0
BBX 7 8 0 0
BITMAP
70
30
30
36
68
70
6A
EC
ENDCHAR

STARTCHAR l
ENCODING 108
SWIDTH 396 0
DWIDTH 4 0
BBX 4 8 1 0
BITMAP
E0
60
60
60
C0
C0
D0
E0
ENDCHAR

STARTCHAR m
ENCODING 109
SWIDTH 948 0
DWIDTH 9 0
BBX 10 5 0 0
BITMAP
ED80
7F80
6D80
DB40
DB80
ENDCHAR

STARTCHAR n
ENCODING 110
SWIDTH 677 0
DWIDTH 7 0
BBX 7 5 0 0
BITMAP
EC
7C
6C
DA
DC
ENDCHAR

STARTCHAR o
ENCODING 111
SWIDTH 594 0
DWIDTH 6 0
BBX 6 5 0 0
BITMAP
38
6C
CC
D8
70
ENDCHAR

STARTCHAR p
ENCODING 112
SWIDTH 646 0
DWIDTH 6 0
BBX 7 7 -1 -2
BITMAP
7C
36
36
34
78
60
F0
ENDCHAR

STARTCHAR q
ENCODING 113
SWIDTH 625 0
DWIDTH 6 0
BBX 6 7 0 -2
BITMAP
3C
6C
CC
D8
78
18
3C
ENDCHAR

STARTCHAR r
ENCODING 114
SWIDTH 552 0
DWIDTH 6 0
BBX 6 5 0 0
BITMAP
6C
34
30
60
F0
ENDCHAR

STARTCHAR s
ENCODING 115
SWIDTH 500 0
DWIDTH 5 0
BBX 5 5 0 0
BITMAP
38
60
30
30
E0
ENDCHAR

STARTCHAR t
ENCODING 116
SWIDTH 406 0
DWIDTH 4 0
BBX 4 7 0 0
BITMAP
20
60
F0
60
C0
D0
60
ENDCHAR

STARTCHAR u
ENCODING 117
SWIDTH 677 0
DWIDTH 7 0
BBX 6 5 1 0
BITMAP
EC
6C
CC
F8
DC
ENDCHAR

STARTCHAR v
ENCODING 118
SWIDTH 562 0
DWIDTH 6 0
BBX 5 5 1 0
BITMAP
E8
68
C8
D0
E0
ENDCHAR

STARTCHAR w
ENCODING 119
SWIDTH 865 0
DWIDTH 9 0
BBX 8 5 1 0
BITMAP
DD
4D
D9
DA
EC
ENDCHAR

STARTCHAR x
ENCODING 120
SWIDTH 625 0
DWIDTH 6 0
BBX 6 5 0 0
BITMAP
6C
30
30
30
D8
ENDCHAR

STARTCHAR y
ENCODING 121
SWIDTH 552 0
DWIDTH 6 0
BBX 6 7 0 -2
BITMAP
C4
64
68
38
30
A0
C0
ENDCHAR

STARTCHAR z
ENCODING 122
SWIDTH 542 0
DWIDTH 5 0
BBX 6 5 0 0
BITMAP
7C
18
70
C0
F8
ENDCHAR

STARTCHAR braceleft
ENCODING 123
SWIDTH 396 0
DWIDTH 4 0
BBX 5 10 0 -2
BITMAP
18
30
30
20
C0
C0
60
60
60
20
ENDCHAR

STARTCHAR bar
ENCODING 124
SWIDTH 542 0
DWIDTH 5 0
BBX 2 8 2 0
BITMAP
C0
C0
C0
C0
C0
C0
C0
C0
ENDCHAR

STARTCHAR braceright
ENCODING 125
SWIDTH 396 0
DWIDTH 4 0
BBX 5 10 0 -2
BITMAP
20
30
30
30
18
18
20
60
60
C0
ENDCHAR

STARTCHAR asciitilde
ENCODING 126
SWIDTH 667 0
DWIDTH 7 0
BBX 6 2 1 2
BITMAP
74
B8
ENDCHAR

STARTCHAR space
ENCODING 160
SWIDTH 250 0
DWIDTH 3 0
BBX 0 0 0 0
BITMAP
ENDCHAR

STARTCHAR afii10023
ENCODING 161
SWIDTH 740 0
DWIDTH 8 0
BBX 8 11 0 0
BITMAP
36
36
00
7F
31
35
3C
64
62
62
FE
ENDCHAR

STARTCHAR afii10051
ENCODING 162
SWIDTH 896 0
DWIDTH 8 0
BBX 8 8 0 0
BITMAP
FC
B4
30
3E
63
63
63
F6
ENDCHAR

STARTCHAR afii10052
ENCODING 163
SWIDTH 719 0
DWIDTH 7 0
BBX 7 11 0 0
BITMAP
0C
10
00
7E
32
32
30
60
60
60
F0
ENDCHAR

STARTCHAR afii10053
ENCODING 164
SWIDTH 740 0
DWIDTH 8 0
BBX 8 8 0 0
BITMAP
1E
33
61
78
C0
C0
64
38
ENDCHAR

STARTCHAR afii10054
ENCODING 165
SWIDTH 667 0
DWIDTH 6 0
BBX 6 8 0 0
BITMAP
3C
64
60
30
18
18
98
F0
ENDCHAR

STARTCHAR afii10055
ENCODING 166
SWIDTH 479 0
DWIDTH 5 0
BBX 5 8 0 0
BITMAP
78
30
30
30
60
60
60
F0
ENDCHAR

STARTCHAR afii10056
ENCODING 167
SWIDTH 479 0
DWIDTH 5 0
BBX 6 11 0 0
BITMAP
6C
6C
00
78
30
30
30
60
60
60
F0
ENDCHAR

STARTCHAR afii10057
ENCODING 168
SWIDTH 656 0
DWIDTH 7 0
BBX 7 8 0 0
BITMAP
1E
0C
0C
0C
18
D8
98
70
ENDCHAR

STARTCHAR afii10058
ENCODING 169
SWIDTH 1219 0
DWIDTH 12 0
BBX 12 8 0 0
BITMAP
1FC0
0980
0980
09E0
1330
D330
9330
67E0
ENDCHAR

STARTCHAR afii10059
ENCODING 170
SWIDTH 1198 0
DWIDTH 11 0
BBX 11 8 0 0
BITMAP
7B80
3300
3300
3FC0
6660
6660
6660
F7C0
ENDCHAR

STARTCHAR afii10060
ENCODING 171
SWIDTH 917 0
DWIDTH 8 0
BBX 8 8 0 0
BITMAP
FC
B4
30
3E
63
63
66
F7
ENDCHAR

STARTCHAR afii10061
ENCODING 172
SWIDTH 833 0
DWIDTH 8 0
BBX 9 11 0 0
BITMAP
0600
0800
0000
7980
3280
3200
3C00
6400
6600
6600
F700
ENDCHAR

STARTCHAR hyphen
ENCODING 173
SWIDTH 323 0
DWIDTH 3 0
BBX 3 1 0 2
BITMAP
E0
ENDCHAR

STARTCHAR afii10062
ENCODING 174
SWIDTH 781 0
DWIDTH 8 0
BBX 9 11 0 0
BITMAP
1200
0C00
0000
F380
6100
6200
3200
3400
1800
D000
6000
ENDCHAR

STARTCHAR afii10145
ENCODING 175
SWIDTH 865 0
DWIDTH 9 0
BBX 9 10 0 -2
BITMAP
7380
3300
3300
3300
6600
6600
6600
FF00
1800
1800
ENDCHAR

STARTCHAR afii10017
ENCODING 176
SWIDTH 802 0
DWIDTH 8 0
BBX 8 8 0 0
BITMAP
04
0C
0C
16
26
3E
46
EF
ENDCHAR

STARTCHAR afii10018
ENCODING 177
SWIDTH 802 0
DWIDTH 8 0
BBX 8 8 0 0
BITMAP
7F
31
30
3C
66
66
66
FC
ENDCHAR

STARTCHAR afii10019
ENCODING 178
SWIDTH 802 0
DWIDTH 8 0
BBX 8 8 0 0
BITMAP
7E
33
33
3E
66
66
66
FC
ENDCHAR

STARTCHAR afii10020
ENCODING 179
SWIDTH 719 0
DWIDTH 7 0
BBX 7 8 0 0
BITMAP
7E
32
32
30
60
60
60
F0
ENDCHAR

STARTCHAR afii10021
ENCODING 180
SWIDTH 813 0
DWIDTH 9 0
BBX 9 10 0 -2
BITMAP
3F80
1300
1300
1300
2600
2600
4600
FF00
C300
8200
ENDCHAR

STARTCHAR afii10022
ENCODING 181
SWIDTH 740 0
DWIDTH 8 0
BBX 8 8 0 0
BITMAP
7F
31
35
3C
64
62
62
FE
ENDCHAR

STARTCHAR afii10024
ENCODING 182
SWIDTH 1177 0
DWIDTH 13 0
BBX 13 8 0 0
BITMAP
6798
5328
1320
0FC0
1EC0
3660
6660
EF70
ENDCHAR

STARTCHAR afii10025
ENCODING 183
SWIDTH 656 0
DWIDTH 7 0
BBX 7 8 0 0
BITMAP
3C
66
46
18
0C
0C
8C
78
ENDCHAR

STARTCHAR afii10026
ENCODING 184
SWIDTH 865 0
DWIDTH 9 0
BBX 9 8 0 0
BITMAP
7380
3300
3300
3700
6E00
7600
6600
E700
ENDCHAR

STARTCHAR afii10027
ENCODING 185
SWIDTH 865 0
DWIDTH 9 0
BBX 9 11 0 0
BITMAP
1200
0C00
0000
7380
3300
3300
3700
6E00
7600
6600
E700
ENDCHAR

STARTCHAR afii10028
ENCODING 186
SWIDTH 844 0
DWIDTH 8 0
BBX 9 8 0 0
BITMAP
7980
3280
3200
3C00
6400
6600
6600
F700
ENDCHAR

STARTCHAR afii10029
ENCODING 187
SWIDTH 865 0
DWIDTH 10 0
BBX 10 8 0 0
BITMAP
1FC0
0980
0980
0980
1300
D300
9300
6780
ENDCHAR

STARTCHAR afii10030
ENCODING 188
SWIDTH 1031 0
DWIDTH 10 0
BBX 11 8 0 0
BITMAP
71E0
31C0
32C0
5AC0
5D80
4D80
4D80
E9C0
ENDCHAR

STARTCHAR afii10031
ENCODING 189
SWIDTH 865 0
DWIDTH 9 0
BBX 9 8 0 0
BITMAP
7780
3300
3300
3F00
6600
6600
6600
F700
ENDCHAR

STARTCHAR afii10032
ENCODING 190
SWIDTH 823 0
DWIDTH 8 0
BBX 8 8 0 0
BITMAP
1E
33
63
63
C6
C6
CC
78
ENDCHAR

STARTCHAR afii10033
ENCODING 191
SWIDTH 865 0
DWIDTH 9 0
BBX 9 8 0 0
BITMAP
7F80
3300
3300
3300
6600
6600
6600
E700
ENDCHAR

STARTCHAR afii10034
ENCODING 192
SWIDTH 771 0
DWIDTH 8 0
BBX 8 8 0 0
BITMAP
7E
33
33
33
7E
60
60
F0
ENDCHAR

STARTCHAR afii10035
ENCODING 193
SWIDTH 740 0
DWIDTH 7 0
BBX 8 8 0 0
BITMAP
0E
33
62
60
C0
C2
C4
78
ENDCHAR

STARTCHAR afii10036
ENCODING 194
SWIDTH 750 0
DWIDTH 8 0
BBX 8 8 0 0
BITMAP
FF
99
99
18
30
30
30
78
ENDCHAR

STARTCHAR afii10037
ENCODING 195
SWIDTH 781 0
DWIDTH 8 0
BBX 9 8 0 0
BITMAP
F380
6100
6200
3200
3400
1800
D000
6000
ENDCHAR

STARTCHAR afii10038
ENCODING 196
SWIDTH 990 0
DWIDTH 9 0
BBX 9 8 0 0
BITMAP
0E00
3F00
4D80
CD80
D980
D900
7E00
3800
ENDCHAR

STARTCHAR afii10039
ENCODING 197
SWIDTH 823 0
DWIDTH 8 0
BBX 9 8 0 0
BITMAP
7B80
3100
1A00
0C00
1800
2C00
4600
EF00
ENDCHAR

STARTCHAR afii10040
ENCODING 198
SWIDTH 865 0
DWIDTH 9 0
BBX 9 10 0 -2
BITMAP
7380
3300
3300
3300
6600
6600
6600
FF00
0300
0200
ENDCHAR

STARTCHAR afii10041
ENCODING 199
SWIDTH 823 0
DWIDTH 8 0
BBX 8 8 0 0
BITMAP
F7
66
C6
CC
7C
18
18
3C
ENDCHAR

STARTCHAR afii10042
ENCODING 200
SWIDTH 1240 0
DWIDTH 12 0
BBX 13 8 0 0
BITMAP
7B38
3330
3330
3330
6660
6660
6660
FFF0
ENDCHAR

STARTCHAR afii10043
ENCODING 201
SWIDTH 1240 0
DWIDTH 12 0
BBX 13 10 0 -2
BITMAP
7B38
3330
3330
3330
6660
6660
6660
FFF0
0030
0020
ENDCHAR

STARTCHAR afii10044
ENCODING 202
SWIDTH 938 0
DWIDTH 8 0
BBX 8 8 0 0
BITMAP
FC
D8
98
1E
33
33
33
7E
ENDCHAR

STARTCHAR afii10045
ENCODING 203
SWIDTH 1240 0
DWIDTH 12 0
BBX 12 8 0 0
BITMAP
78F0
3060
3060
3C60
66C0
66C0
66C0
FDE0
ENDCHAR

STARTCHAR afii10046
ENCODING 204
SWIDTH 802 0
DWIDTH 7 0
BBX 7 8 0 0
BITMAP
78
30
30
3C
66
66
66
FC
ENDCHAR

STARTCHAR afii10047
ENCODING 205
SWIDTH 740 0
DWIDTH 8 0
BBX 8 8 0 0
BITMAP
1C
36
23
0F
06
06
8C
78
ENDCHAR

STARTCHAR afii10048
ENCODING 206
SWIDTH 1135 0
DWIDTH 12 0
BBX 12 8 0 0
BITMAP
79E0
3330
3630
3E30
6C60
6C60
6CC0
F780
ENDCHAR

STARTCHAR afii10049
ENCODING 207
SWIDTH 844 0
DWIDTH 9 0
BBX 9 8 0 0
BITMAP
1F80
3300
3300
3300
1E00
3600
6600
EF00
ENDCHAR

STARTCHAR afii10065
ENCODING 208
SWIDTH 667 0
DWIDTH 7 0
BBX 8 5 0 0
BITMAP
1E
66
CC
DD
6E
ENDCHAR

STARTCHAR afii10066
ENCODING 209
SWIDTH 594 0
DWIDTH 6 0
BBX 6 8 0 0
BITMAP
04
7C
C0
B8
EC
CC
D8
70
ENDCHAR

STARTCHAR afii10067
ENCODING 210
SWIDTH 563 0
DWIDTH 5 0
BBX 5 5 0 0
BITMAP
30
58
F0
C8
70
ENDCHAR

STARTCHAR afii10068
ENCODING 211
SWIDTH 500 0
DWIDTH 5 0
BBX 5 5 0 0
BITMAP
70
18
70
C0
70
ENDCHAR

STARTCHAR afii10069
ENCODING 212
SWIDTH 594 0
DWIDTH 6 0
BBX 6 8 0 0
BITMAP
38
0C
04
3C
6C
CC
D8
70
ENDCHAR

STARTCHAR afii10070
ENCODING 213
SWIDTH 500 0
DWIDTH 5 0
BBX 5 5 0 0
BITMAP
30
58
F0
C0
70
ENDCHAR

STARTCHAR afii10072
ENCODING 214
SWIDTH 1146 0
DWIDTH 11 0
BBX 12 5 0 0
BITMAP
3260
5AD0
1F80
B5A0
64C0
ENDCHAR

STARTCHAR afii10073
ENCODING 215
SWIDTH 542 0
DWIDTH 5 0
BBX 5 5 0 0
BITMAP
70
58
30
98
70
ENDCHAR

STARTCHAR afii10074
ENCODING 216
SWIDTH 677 0
DWIDTH 7 0
BBX 6 5 1 0
BITMAP
EC
6C
CC
F8
DC
ENDCHAR

STARTCHAR afii10075
ENCODING 217
SWIDTH 677 0
DWIDTH 7 0
BBX 6 8 1 0
BITMAP
24
18
00
EC
6C
CC
F8
DC
ENDCHAR

STARTCHAR afii10076
ENCODING 218
SWIDTH 646 0
DWIDTH 6 0
BBX 7 5 0 0
BITMAP
E6
6A
70
D8
CC
ENDCHAR

STARTCHAR afii10077
ENCODING 219
SWIDTH 708 0
DWIDTH 7 0
BBX 7 5 0 0
BITMAP
0E
16
26
AC
CE
ENDCHAR

STARTCHAR afii10078
ENCODING 220
SWIDTH 948 0
DWIDTH 9 0
BBX 10 5 -1 0
BITMAP
39C0
1980
1A80
AD40
C980
ENDCHAR

STARTCHAR afii10079
ENCODING 221
SWIDTH 688 0
DWIDTH 7 0
BBX 7 5 0 0
BITMAP
EC
6C
78
DA
DC
ENDCHAR

STARTCHAR afii10080
ENCODING 222
SWIDTH 594 0
DWIDTH 6 0
BBX 6 5 0 0
BITMAP
38
6C
CC
D8
70
ENDCHAR

STARTCHAR afii10081
ENCODING 223
SWIDTH 677 0
DWIDTH 7 0
BBX 7 5 0 0
BITMAP
EC
7C
6C
DA
DC
ENDCHAR

STARTCHAR afii10082
ENCODING 224
SWIDTH 646 0
DWIDTH 6 0
BBX 7 7 -1 -2
BITMAP
7C
36
36
34
78
60
F0
ENDCHAR

STARTCHAR afii10083
ENCODING 225
SWIDTH 510 0
DWIDTH 5 0
BBX 5 5 0 0
BITMAP
30
68
C0
D0
60
ENDCHAR

STARTCHAR afii10084
ENCODING 226
SWIDTH 958 0
DWIDTH 9 0
BBX 10 5 0 0
BITMAP
ED80
7F80
6D80
DB40
DB80
ENDCHAR

STARTCHAR afii10085
ENCODING 227
SWIDTH 531 0
DWIDTH 6 0
BBX 6 7 0 -2
BITMAP
C4
64
68
38
30
A0
C0
ENDCHAR

STARTCHAR afii10086
ENCODING 228
SWIDTH 833 0
DWIDTH 8 0
BBX 8 10 0 -2
BITMAP
06
08
08
2A
5F
DB
FA
54
10
60
ENDCHAR

STARTCHAR afii10087
ENCODING 229
SWIDTH 615 0
DWIDTH 6 0
BBX 6 5 0 0
BITMAP
6C
30
30
30
D8
ENDCHAR

STARTCHAR afii10088
ENCODING 230
SWIDTH 677 0
DWIDTH 7 0
BBX 6 7 1 -2
BITMAP
EC
6C
CC
F8
DC
10
20
ENDCHAR

STARTCHAR afii10089
ENCODING 231
SWIDTH 646 0
DWIDTH 6 0
BBX 7 5 -1 0
BITMAP
EC
6C
38
1A
1C
ENDCHAR

STARTCHAR afii10090
ENCODING 232
SWIDTH 948 0
DWIDTH 9 0
BBX 10 5 0 0
BITMAP
DD80
4D80
DB00
DB40
ED80
ENDCHAR

STARTCHAR afii10091
ENCODING 233
SWIDTH 948 0
DWIDTH 9 0
BBX 10 7 0 -2
BITMAP
DD80
4D80
DB00
DB40
ED80
0100
0200
ENDCHAR

STARTCHAR afii10092
ENCODING 234
SWIDTH 646 0
DWIDTH 6 0
BBX 6 5 0 0
BITMAP
F0
B0
38
6C
70
ENDCHAR

STARTCHAR afii10093
ENCODING 235
SWIDTH 917 0
DWIDTH 9 0
BBX 9 5 0 0
BITMAP
E700
6300
7600
DE80
E700
ENDCHAR

STARTCHAR afii10094
ENCODING 236
SWIDTH 604 0
DWIDTH 5 0
BBX 5 5 0 0
BITMAP
E0
60
70
D8
E0
ENDCHAR

STARTCHAR afii10095
ENCODING 237
SWIDTH 521 0
DWIDTH 5 0
BBX 5 5 0 0
BITMAP
38
58
38
98
70
ENDCHAR

STARTCHAR afii10096
ENCODING 238
SWIDTH 885 0
DWIDTH 9 0
BBX 9 5 0 0
BITMAP
E700
6D80
7980
DB00
CE00
ENDCHAR

STARTCHAR afii10097
ENCODING 239
SWIDTH 667 0
DWIDTH 7 0
BBX 8 5 0 0
BITMAP
1E
36
3C
6D
EE
ENDCHAR

STARTCHAR afii61352
ENCODING 240
SWIDTH 1115 0
DWIDTH 10 0
BBX 11 8 -1 0
BITMAP
30C0
1940
1900
1D60
2DA0
26C0
A600
C2E0
ENDCHAR

STARTCHAR afii10071
ENCODING 241
SWIDTH 500 0
DWIDTH 5 0
BBX 6 8 0 0
BITMAP
6C
6C
00
30
58
F0
C0
70
ENDCHAR

STARTCHAR afii10099
ENCODING 242
SWIDTH 635 0
DWIDTH 7 0
BBX 7 10 0 -2
BITMAP
30
7E
30
3C
66
66
6C
EC
0C
18
ENDCHAR

STARTCHAR afii10100
ENCODING 243
SWIDTH 563 0
DWIDTH 6 0
BBX 6 8 0 0
BITMAP
0C
10
00
7C
34
30
60
F0
ENDCHAR

STARTCHAR afii10101
ENCODING 244
SWIDTH 510 0
DWIDTH 5 0
BBX 5 5 0 0
BITMAP
70
C8
E0
D0
60
ENDCHAR

STARTCHAR afii10102
ENCODING 245
SWIDTH 500 0
DWIDTH 5 0
BBX 5 5 0 0
BITMAP
38
60
30
30
E0
ENDCHAR

STARTCHAR afii10103
ENCODING 246
SWIDTH 396 0
DWIDTH 4 0
BBX 3 8 1 0
BITMAP
60
60
00
E0
60
60
C0
E0
ENDCHAR

STARTCHAR afii10104
ENCODING 247
SWIDTH 396 0
DWIDTH 4 0
BBX 5 8 0 0
BITMAP
D8
D8
00
70
30
30
60
70
ENDCHAR

STARTCHAR afii10105
ENCODING 248
SWIDTH 396 0
DWIDTH 4 0
BBX 5 10 0 -2
BITMAP
18
18
00
70
30
30
60
60
60
C0
ENDCHAR

STARTCHAR afii10106
ENCODING 249
SWIDTH 969 0
DWIDTH 9 0
BBX 9 5 0 0
BITMAP
1E00
2600
2700
AD80
CE00
ENDCHAR

STARTCHAR afii10107
ENCODING 250
SWIDTH 917 0
DWIDTH 8 0
BBX 8 5 0 0
BITMAP
EC
6C
7E
DB
DC
ENDCHAR

STARTCHAR afii10108
ENCODING 251
SWIDTH 677 0
DWIDTH 7 0
BBX 8 8 0 0
BITMAP
30
7E
30
3C
66
66
6D
EE
ENDCHAR

STARTCHAR afii10109
ENCODING 252
SWIDTH 646 0
DWIDTH 6 0
BBX 7 8 0 0
BITMAP
18
20
00
E6
6A
70
D8
CC
ENDCHAR

STARTCHAR section
ENCODING 253
SWIDTH 552 0
DWIDTH 6 0
BBX 6 10 0 -2
BITMAP
1C
24
20
70
58
68
38
10
90
E0
ENDCHAR

STARTCHAR afii10110
ENCODING 254
SWIDTH 531 0
DWIDTH 6 0
BBX 6 10 0 -2
BITMAP
48
30
00
C4
64
68
38
30
A0
C0
ENDCHAR

STARTCHAR afii10193
ENCODING 255
SWIDTH 677 0
DWIDTH 7 0
BBX 7 7 0 -2
BITMAP
76
36
66
7C
6E
40
80
ENDCHAR
ENDFONT
